<?xml version="1.0" encoding="iso-8859-1"?>
<!-- Generator: Adobe Illustrator 19.0.0, SVG Export Plug-In . SVG Version: 6.00 Build 0)  -->
<svg version="1.1" id="Layer_1" xmlns="http://www.w3.org/2000/svg" xmlns:xlink="http://www.w3.org/1999/xlink" x="0px" y="0px"
	 viewBox="0 0 512 512" style="enable-background:new 0 0 512 512;" xml:space="preserve">
<circle style="fill:#B97850;" cx="256" cy="256" r="256"/>
<path style="fill:#935635;" d="M509.085,294.745L372.364,158.024L229.567,289.328l-95.72,69.791l151.228,151.228
	C399.982,497.354,491.842,408.311,509.085,294.745z"/>
<polygon style="fill:#FFFFFF;" points="328.118,113.778 139.636,113.778 139.636,284.444 372.364,284.444 372.364,158.024 "/>
<polygon style="fill:#E9EFF4;" points="372.364,158.024 328.118,113.778 255.426,113.778 255.426,284.444 372.364,284.444 "/>
<path style="fill:#FFC61B;" d="M356.345,369.778H155.653c-15.272,0-27.653-12.381-27.653-27.655V170.667h71.111l28.444,28.444H384
	v143.012C384,357.397,371.619,369.778,356.345,369.778z"/>
<path style="fill:#EAA22F;" d="M255.426,199.111v170.667h100.921c15.272,0,27.655-12.381,27.655-27.655V199.111H255.426z"/>
<rect x="170.667" y="256" style="fill:#FEE187;" width="170.667" height="56.889"/>
<rect x="255.431" y="256" style="fill:#FFC61B;" width="85.907" height="56.889"/>
<polygon style="fill:#CFDBE6;" points="328.118,158.024 372.364,158.024 328.118,113.778 "/>
<g>
</g>
<g>
</g>
<g>
</g>
<g>
</g>
<g>
</g>
<g>
</g>
<g>
</g>
<g>
</g>
<g>
</g>
<g>
</g>
<g>
</g>
<g>
</g>
<g>
</g>
<g>
</g>
<g>
</g>
</svg>
