<?xml version="1.0" encoding="UTF-8"?>
<svg xmlns="http://www.w3.org/2000/svg" xmlns:xlink="http://www.w3.org/1999/xlink" width="30pt" height="30pt" viewBox="0 0 30 30" version="1.1">
<g id="surface4036723">
<path style=" stroke:none;fill-rule:nonzero;fill:rgb(44.705882%,40.392157%,94.901961%);fill-opacity:1;" d="M 24.28125 19.875 C 24.28125 24.84375 20.125 28.875 15 28.875 C 9.875 28.875 5.71875 24.84375 5.71875 19.875 C 5.71875 13.125 14.226562 7.5 14.226562 1.125 C 16.160156 2.0625 19.253906 5.375 19.253906 9.75 C 19.253906 11.625 18.867188 13.5 18.867188 13.5 C 21.1875 12.75 21.1875 10.125 21.1875 10.125 C 21.1875 10.125 24.28125 14.25 24.28125 19.875 Z M 24.28125 19.875 "/>
<path style=" stroke:none;fill-rule:nonzero;fill:rgb(54.901961%,60.392157%,92.54902%);fill-opacity:1;" d="M 14.847656 13.125 C 14.929688 13.519531 14.972656 13.925781 14.972656 14.34375 C 14.972656 18.894531 10.078125 19.246094 9.488281 22.886719 C 9.0625 25.503906 10.484375 28.875 14.808594 28.875 C 18 28.875 20.585938 26.054688 20.585938 22.570312 C 20.585938 19.136719 15.8125 13.277344 14.847656 13.125 Z M 14.847656 13.125 "/>
<path style=" stroke:none;fill-rule:nonzero;fill:rgb(38.039216%,29.803922%,67.058824%);fill-opacity:1;" d="M 15 29.0625 C 9.777344 29.0625 5.53125 24.941406 5.53125 19.875 C 5.53125 16.394531 7.757812 13.203125 9.910156 10.121094 C 12.035156 7.082031 14.039062 4.207031 14.039062 1.125 C 14.039062 1.058594 14.070312 1 14.128906 0.964844 C 14.183594 0.933594 14.25 0.929688 14.308594 0.957031 C 16.441406 1.988281 19.441406 5.402344 19.441406 9.75 C 19.441406 11.15625 19.222656 12.578125 19.113281 13.207031 C 20.976562 12.386719 21 10.148438 21 10.125 C 21 10.042969 21.050781 9.972656 21.128906 9.945312 C 21.207031 9.921875 21.289062 9.949219 21.335938 10.011719 C 21.367188 10.054688 24.46875 14.253906 24.46875 19.875 C 24.46875 24.941406 20.222656 29.0625 15 29.0625 Z M 14.40625 1.429688 C 14.277344 4.519531 12.214844 7.476562 10.21875 10.335938 C 8.097656 13.371094 5.90625 16.511719 5.90625 19.875 C 5.90625 24.734375 9.984375 28.6875 15 28.6875 C 20.015625 28.6875 24.09375 24.734375 24.09375 19.875 C 24.09375 15.386719 22.078125 11.835938 21.320312 10.65625 C 21.183594 11.5 20.6875 13.109375 18.925781 13.679688 C 18.863281 13.699219 18.792969 13.683594 18.742188 13.640625 C 18.691406 13.59375 18.671875 13.527344 18.683594 13.460938 C 18.6875 13.445312 19.066406 11.582031 19.066406 9.75 C 19.066406 5.738281 16.425781 2.5625 14.40625 1.429688 Z M 14.40625 1.429688 "/>
</g>
</svg>
