<svg xmlns="http://www.w3.org/2000/svg" xmlns:xlink="http://www.w3.org/1999/xlink" width="400pt" height="400pt" version="1.1" viewBox="0 0 400 400"><g id="surface4092152"><path style="stroke:none;fill-rule:nonzero;fill:#7267f2;fill-opacity:1" d="M 343.75 318.355469 C 357.085938 318.324219 368.992188 309.8125 373.304688 297.261719 C 377.6875 284.511719 373.3125 270.261719 362.5 262.105469 C 377.0625 258.832031 387.5 245.789062 387.5 230.855469 C 387.5 215.925781 377.0625 202.882812 362.5 199.605469 C 364.59375 197.550781 378.082031 183.695312 375 168.355469 C 372.1875 154.363281 359.226562 143.667969 343.75 143.355469 L 255.074219 143.355469 C 259.199219 124.042969 266.257812 74.644531 240.617188 39.554688 C 234.195312 30.757812 228.050781 16.886719 212.5 18.75 C 199.855469 20.261719 189.636719 33.636719 187.5 37.5 L 188.476562 93.75 C 188.476562 105.695312 172.851562 151.367188 156.25 168.363281 C 151.679688 173.039062 139.242188 180.144531 118.75 180.863281 L 118.75 324.613281 C 120.289062 331.332031 123.050781 341.414062 131.25 349.613281 C 150 368.363281 193.75 368.363281 200 368.363281 L 293.75 368.363281 C 328.644531 368.363281 346.175781 357.1875 349.480469 340.757812 C 350.023438 338.042969 351.167969 329.679688 343.75 318.355469 Z M 343.75 318.355469"/><path style="fill:none;stroke-width:13.4375;stroke-linecap:round;stroke-linejoin:miter;stroke:#8980f3;stroke-opacity:1;stroke-miterlimit:10" d="M 57.78125 83.9575 C 66.359414 82.361797 70.703086 78.577461 71.993086 77.257227 C 79.28125 70.434336 87.226172 52.965586 87.226172 40.478789 L 87.226172 17.008516" transform="matrix(2.325581,0,0,2.325581,0,0)"/><path style="stroke:none;fill-rule:nonzero;fill:#614cab;fill-opacity:1" d="M 43.75 162.5 L 100 162.5 C 110.355469 162.5 118.75 169.789062 118.75 178.78125 L 118.75 352.460938 C 118.75 361.457031 110.355469 368.75 100 368.75 L 43.75 368.75 C 29.945312 368.75 18.75 359.03125 18.75 347.039062 L 18.75 184.207031 C 18.75 172.21875 29.945312 162.5 43.75 162.5 Z M 43.75 162.5"/><path style="stroke:none;fill-rule:nonzero;fill:#7966b8;fill-opacity:1" d="M 34.375 162.5 C 42.992188 162.5 50 169.507812 50 178.125 L 50 353.125 C 50 361.738281 42.992188 368.75 34.375 368.75 C 25.757812 368.75 18.75 361.738281 18.75 353.125 L 18.75 178.125 C 18.75 169.507812 25.757812 162.5 34.375 162.5 Z M 34.375 162.5"/><path style="stroke:none;fill-rule:nonzero;fill:#afacc2;fill-opacity:1" d="M 56.25 181.25 L 43.75 181.25 C 40.304688 181.25 37.5 184.054688 37.5 187.5 C 37.5 190.945312 40.304688 193.75 43.75 193.75 L 56.25 193.75 C 59.695312 193.75 62.5 190.945312 62.5 187.5 C 62.5 184.054688 59.695312 181.25 56.25 181.25 Z M 56.25 212.5 L 43.75 212.5 C 40.304688 212.5 37.5 215.304688 37.5 218.75 C 37.5 222.195312 40.304688 225 43.75 225 L 56.25 225 C 59.695312 225 62.5 222.195312 62.5 218.75 C 62.5 215.304688 59.695312 212.5 56.25 212.5 Z M 56.25 243.75 L 43.75 243.75 C 40.304688 243.75 37.5 246.554688 37.5 250 C 37.5 253.445312 40.304688 256.25 43.75 256.25 L 56.25 256.25 C 59.695312 256.25 62.5 253.445312 62.5 250 C 62.5 246.554688 59.695312 243.75 56.25 243.75 Z M 56.25 275 L 43.75 275 C 40.304688 275 37.5 277.804688 37.5 281.25 C 37.5 284.695312 40.304688 287.5 43.75 287.5 L 56.25 287.5 C 59.695312 287.5 62.5 284.695312 62.5 281.25 C 62.5 277.804688 59.695312 275 56.25 275 Z M 56.25 306.25 L 43.75 306.25 C 40.304688 306.25 37.5 309.054688 37.5 312.5 C 37.5 315.945312 40.304688 318.75 43.75 318.75 L 56.25 318.75 C 59.695312 318.75 62.5 315.945312 62.5 312.5 C 62.5 309.054688 59.695312 306.25 56.25 306.25 Z M 56.25 337.5 L 43.75 337.5 C 40.304688 337.5 37.5 340.304688 37.5 343.75 C 37.5 347.195312 40.304688 350 43.75 350 L 56.25 350 C 59.695312 350 62.5 347.195312 62.5 343.75 C 62.5 340.304688 59.695312 337.5 56.25 337.5 Z M 56.25 337.5"/><path style="stroke:none;fill-rule:nonzero;fill:#675af5;fill-opacity:1" d="M 318.75 368.75 L 162.5 368.75 L 143.75 356.25 L 125 337.5 L 350 337.5 L 337.5 356.25 Z M 318.75 368.75"/><path style="fill:none;stroke-width:5.375;stroke-linecap:butt;stroke-linejoin:round;stroke:#afacc2;stroke-opacity:1;stroke-miterlimit:10" d="M 147.8125 137.0625 C 153.546953 137.049062 158.666641 133.389023 160.521016 127.992188 C 162.405625 122.509687 160.527734 116.382188 155.875 112.875 C 162.136875 111.467422 166.625 105.857266 166.625 99.4375 C 166.625 93.017734 162.136875 87.407578 155.875 86 C 156.775312 85.116484 162.575273 79.156953 161.25 72.5625 C 160.040625 66.545859 154.467422 61.946875 147.8125 61.8125 L 108.437266 61.8125 C 109.846523 54.752773 113.941602 30.390586 101.108789 15.901602 C 98.411211 12.851289 94.904023 8.0625 88.569922 8.0625 C 81.878047 8.0625 80.656914 13.477813 80.625 16.291289 L 80.625 40.478789 C 80.625 48.375 74.326172 65.255859 67.1875 72.5625 C 65.222266 74.573086 59.874141 77.628438 51.0625 77.9375 L 51.0625 145.125 C 52.868164 147.352266 55.214687 149.833164 58.359063 151.968047 C 68.151641 158.612891 80.668672 158.5625 86 158.5625 L 126.3125 158.5625 C 141.317148 158.5625 148.855586 153.756914 150.276602 146.692148 C 150.510078 145.528125 151.002227 141.930234 147.8125 137.0625 Z M 147.8125 137.0625" transform="matrix(2.325581,0,0,2.325581,0,0)"/><path style="fill:none;stroke-width:5.375;stroke-linecap:butt;stroke-linejoin:miter;stroke:#afacc2;stroke-opacity:1;stroke-miterlimit:10" d="M 13.4375 158.5625 L 45.6875 158.5625 C 48.657187 158.5625 51.0625 156.157187 51.0625 153.1875 L 51.0625 75.25 C 51.0625 72.280312 48.657187 69.875 45.6875 69.875 L 13.4375 69.875 C 10.467812 69.875 8.0625 72.280312 8.0625 75.25 L 8.0625 153.1875 C 8.0625 156.153828 10.467812 158.5625 13.4375 158.5625 Z M 13.4375 158.5625" transform="matrix(2.325581,0,0,2.325581,0,0)"/></g></svg>