<svg xmlns="http://www.w3.org/2000/svg" xmlns:xlink="http://www.w3.org/1999/xlink" width="400pt" height="400pt" version="1.1" viewBox="0 0 400 400"><defs><radialGradient id="radial0" cx="90.386" cy="79.483" r="46.203" fx="90.386" fy="79.483" gradientTransform="matrix(2.325581,0,0,2.325581,0,0)" gradientUnits="userSpaceOnUse"><stop offset="0" style="stop-color:#342c44;stop-opacity:1"/><stop offset=".193" style="stop-color:#342c44;stop-opacity:1"/><stop offset=".703" style="stop-color:#342c44;stop-opacity:1"/><stop offset="1" style="stop-color:#342c44;stop-opacity:1"/></radialGradient><linearGradient id="linear0" x1="86" x2="86" y1="-36.053" y2="72.528" gradientTransform="matrix(2.325581,0,0,2.325581,0,0)" gradientUnits="userSpaceOnUse"><stop offset="0" style="stop-color:#8c9aec;stop-opacity:1"/><stop offset=".996" style="stop-color:#7267f2;stop-opacity:1"/><stop offset="1" style="stop-color:#7267f2;stop-opacity:1"/></linearGradient><linearGradient id="linear1" x1="86" x2="86" y1="17.098" y2="71.24" gradientTransform="matrix(2.325581,0,0,2.325581,0,0)" gradientUnits="userSpaceOnUse"><stop offset="0" style="stop-color:#8c9aec;stop-opacity:1"/><stop offset=".996" style="stop-color:#7267f2;stop-opacity:1"/><stop offset="1" style="stop-color:#7267f2;stop-opacity:1"/></linearGradient><linearGradient id="linear2" x1="86" x2="86" y1="57.779" y2="160.207" gradientTransform="matrix(2.325581,0,0,2.325581,0,0)" gradientUnits="userSpaceOnUse"><stop offset="0" style="stop-color:#8c9aec;stop-opacity:1"/><stop offset=".996" style="stop-color:#7267f2;stop-opacity:1"/><stop offset="1" style="stop-color:#7267f2;stop-opacity:1"/></linearGradient><linearGradient id="linear3" x1="52.406" x2="52.406" y1="98.408" y2="47.464" gradientTransform="matrix(2.325581,0,0,2.325581,0,0)" gradientUnits="userSpaceOnUse"><stop offset="0" style="stop-color:#ff9757;stop-opacity:1"/><stop offset="1" style="stop-color:#ffb65b;stop-opacity:1"/></linearGradient><linearGradient id="linear4" x1="61.221" x2="61.221" y1="98.408" y2="47.464" gradientTransform="matrix(2.325581,0,0,2.325581,0,0)" gradientUnits="userSpaceOnUse"><stop offset="0" style="stop-color:#ff9757;stop-opacity:1"/><stop offset="1" style="stop-color:#ffb65b;stop-opacity:1"/></linearGradient><linearGradient id="linear5" x1="85.995" x2="85.995" y1="98.408" y2="47.464" gradientTransform="matrix(2.325581,0,0,2.325581,0,0)" gradientUnits="userSpaceOnUse"><stop offset="0" style="stop-color:#ff9757;stop-opacity:1"/><stop offset="1" style="stop-color:#ffb65b;stop-opacity:1"/></linearGradient><linearGradient id="linear6" x1="127.834" x2="127.834" y1="56.894" y2="151.32" gradientTransform="matrix(2.325581,0,0,2.325581,0,0)" gradientUnits="userSpaceOnUse"><stop offset="0" style="stop-color:#8c9aec;stop-opacity:1"/><stop offset="1" style="stop-color:#614cab;stop-opacity:1"/></linearGradient></defs><g id="surface3947692"><path style="stroke:none;fill-rule:nonzero;fill:url(#radial0)" d="M 384.382812 131.300781 L 350.46875 131.300781 C 344.78125 131.300781 339.460938 127.71875 337.96875 122.230469 C 335.707031 113.917969 342.007812 106.25 350 106.25 L 368.75 106.25 C 380.320312 106.25 389.511719 95.675781 387.117188 83.730469 C 385.34375 74.824219 376.960938 68.75 367.882812 68.75 L 303.125 68.75 C 297.9375 68.75 293.75 64.5625 293.75 59.375 C 293.75 54.1875 297.9375 50 303.125 50 L 321.28125 50 C 328.398438 50 335.070312 45.507812 336.9375 38.636719 C 339.757812 28.257812 331.882812 18.75 321.875 18.75 L 47.46875 18.75 C 40.351562 18.75 33.6875 23.242188 31.820312 30.113281 C 28.992188 40.492188 36.867188 50 46.875 50 L 65.625 50 C 69.9375 50 73.875 51.75 76.6875 54.5625 C 79.292969 57.167969 80.988281 60.738281 81.21875 64.679688 C 81.761719 73.773438 73.738281 81.25 64.625 81.25 L 25.820312 81.25 C 16.75 81.25 8.386719 87.324219 6.625 96.21875 C 4.25 108.167969 13.449219 118.75 25 118.75 L 156.25 118.75 C 158.4375 118.75 160.5625 118.3125 162.5 117.5625 L 162.5 162.5 C 162.5 162.5 154.039062 166.351562 143.332031 187.5 L 31.25 187.5 C 20.894531 187.5 12.5 195.894531 12.5 206.25 C 12.5 216.605469 20.894531 225 31.25 225 L 124.585938 225 C 110.96875 252.675781 99.054688 253.132812 99.6875 256.25 L 29.449219 256.25 C 14.78125 256.25 1.617188 266.898438 0.144531 281.492188 C -1.542969 298.238281 11.707031 312.5 28.125 312.5 L 33.476562 312.5 C 41.648438 312.5 49.101562 318.375 49.917969 326.507812 C 50.863281 335.855469 43.53125 343.75 34.375 343.75 L 32.28125 343.75 C 22.125 343.75 13.039062 351.382812 12.523438 361.523438 C 11.980469 372.34375 20.550781 381.25 31.25 381.25 L 367.726562 381.25 C 377.886719 381.25 386.96875 373.617188 387.480469 363.476562 C 388.019531 352.648438 379.449219 343.75 368.75 343.75 L 360.273438 343.75 C 352.101562 343.75 344.648438 337.875 343.832031 329.742188 C 342.886719 320.394531 350.21875 312.5 359.375 312.5 L 364.300781 312.5 C 378.96875 312.5 392.132812 301.851562 393.605469 287.257812 C 395.292969 270.511719 382.042969 256.25 365.625 256.25 L 296.480469 256.25 C 298.445312 246.332031 255.625 162.5 262.5 162.5 L 383.820312 162.5 C 390.945312 162.5 397.570312 158.042969 399.445312 151.167969 C 402.195312 140.792969 394.320312 131.300781 384.382812 131.300781 Z M 384.382812 131.300781"/><path style="stroke:none;fill-rule:nonzero;fill:url(#linear0)" d="M 259.84375 68.75 L 140.15625 68.75 C 127.570312 68.75 120.488281 83.375 128.210938 93.40625 L 162.175781 137.5 L 237.824219 137.5 L 271.789062 93.40625 C 279.511719 83.375 272.429688 68.75 259.84375 68.75 Z M 259.84375 68.75"/><path style="stroke:none;fill-rule:nonzero;fill:url(#linear1)" d="M 255.125 54.625 C 244.25 81.6875 225 131.25 225 131.25 L 175 131.25 C 175 131.25 174.125 128.9375 172.5625 125 C 167.1875 111.1875 154.0625 77.5625 145.5625 56.25 C 145.3125 55.6875 145.0625 55.1875 144.875 54.625 C 141.5 46.4375 147.5625 37.5 156.4375 37.5 L 243.5625 37.5 C 252.4375 37.5 258.5 46.4375 255.125 54.625 Z M 255.125 54.625"/><path style="stroke:none;fill-rule:nonzero;fill:url(#linear2)" d="M 344.5625 270.5 C 344.5625 328.25 302 350 256.5 357.9375 C 234.6875 361.8125 212.25 362.5 193.4375 362.5 C 144.8125 362.5 80.875 357.875 61.4375 306.25 C 57.5625 296.1875 55.4375 284.375 55.4375 270.5 C 55.4375 256.125 59.25 240.5625 65.875 225 C 82.25 186.25 115.6875 147.25 150 125 L 250 125 C 288 149.625 325 194.875 338.8125 237.5 C 342.5 248.8125 344.5625 259.9375 344.5625 270.5 Z M 344.5625 270.5"/><path style="stroke:none;fill-rule:nonzero;fill:#fff;fill-opacity:1" d="M 207.914062 242.679688 C 193.074219 235.882812 187.039062 232.226562 187.039062 223.25 C 187.039062 217.023438 194.40625 211.761719 203.125 211.761719 C 211.84375 211.761719 219.210938 217.023438 219.210938 223.25 C 219.210938 229.59375 224.355469 234.738281 230.699219 234.738281 C 237.042969 234.738281 242.1875 229.59375 242.1875 223.25 C 242.1875 206.324219 228.273438 192.238281 210.019531 189.355469 L 210.019531 184.1875 C 210.019531 179.132812 205.882812 175 200.824219 175 C 195.769531 175 191.632812 179.136719 191.632812 184.1875 L 191.632812 190.3125 C 175.679688 194.648438 164.054688 207.773438 164.054688 223.25 C 164.054688 247.855469 183.867188 256.9375 198.332031 263.5625 C 213.167969 270.363281 219.207031 274.019531 219.207031 282.992188 C 219.207031 289.21875 211.835938 294.480469 203.117188 294.480469 C 194.398438 294.480469 187.03125 289.21875 187.03125 282.992188 C 187.03125 276.648438 181.886719 271.507812 175.542969 271.507812 C 169.199219 271.507812 164.054688 276.648438 164.054688 282.992188 C 164.054688 298.476562 175.679688 311.59375 191.632812 315.9375 L 191.632812 322.054688 C 191.632812 327.113281 195.769531 331.25 200.824219 331.25 C 205.882812 331.25 210.019531 327.113281 210.019531 322.054688 L 210.019531 316.894531 C 228.273438 314.007812 242.1875 299.925781 242.1875 282.992188 C 242.1875 258.394531 222.375 249.3125 207.914062 242.679688 Z M 207.914062 242.679688"/><path style="stroke:none;fill-rule:nonzero;fill:url(#linear3)" d="M 100 212.5 C 93.101562 212.5 87.5 206.898438 87.5 200 C 87.5 143.394531 135.507812 115.3125 137.550781 114.148438 C 143.542969 110.730469 151.1875 112.804688 154.605469 118.800781 C 158.023438 124.78125 155.957031 132.398438 149.992188 135.835938 C 148.332031 136.800781 112.5 158.210938 112.5 200 C 112.5 206.898438 106.898438 212.5 100 212.5 Z M 100 212.5"/><path style="stroke:none;fill-rule:nonzero;fill:url(#linear4)" d="M 143.738281 187.5 C 137.730469 187.5 132.4375 183.167969 131.417969 177.054688 C 124.832031 137.550781 131.21875 122.105469 132.570312 119.40625 C 135.65625 113.238281 143.144531 110.71875 149.34375 113.8125 C 155.363281 116.820312 157.894531 124.039062 155.15625 130.117188 C 154.832031 131.03125 151.050781 142.730469 156.082031 172.9375 C 157.21875 179.75 152.613281 186.1875 145.804688 187.324219 C 145.113281 187.445312 144.414062 187.5 143.738281 187.5 Z M 143.738281 187.5"/><path style="stroke:none;fill-rule:nonzero;fill:url(#linear5)" d="M 200 150 C 166.1875 150 139.289062 136.742188 138.15625 136.179688 C 131.980469 133.09375 129.476562 125.585938 132.5625 119.40625 C 135.644531 113.242188 143.132812 110.757812 149.3125 113.804688 C 149.726562 114.007812 172.40625 125 200 125 C 227.707031 125 250.457031 113.917969 250.679688 113.804688 C 256.863281 110.75 264.355469 113.273438 267.429688 119.445312 C 270.492188 125.613281 268.007812 133.101562 261.835938 136.179688 C 260.710938 136.742188 233.8125 150 200 150 Z M 200 150"/><path style="stroke:none;fill-rule:nonzero;fill:url(#linear6)" d="M 344.5625 270.5 C 344.5625 328.25 302 350 256.5 357.9375 C 251.6875 353.75 249 347.1875 250.375 340.0625 C 252.0625 331.125 260.375 325 269.4375 325 L 290.625 325 C 295.8125 325 300 320.8125 300 315.625 C 300 310.4375 295.8125 306.25 290.625 306.25 L 287.5 306.25 C 279.9375 306.25 273.875 299.5 275.1875 291.625 C 276.1875 285.5 281.9375 281.25 288.1875 281.25 L 309.375 281.25 C 314.5625 281.25 318.75 277.0625 318.75 271.875 C 318.75 266.6875 314.5625 262.5 309.375 262.5 L 306.25 262.5 C 298.6875 262.5 292.625 255.75 293.9375 247.875 C 294.9375 241.75 300.6875 237.5 306.9375 237.5 L 338.8125 237.5 C 342.5 248.8125 344.5625 259.9375 344.5625 270.5 Z M 344.5625 270.5"/></g></svg>